<svg height="512" width="512" xmlns="http://www.w3.org/2000/svg"><rect height="512" rx="64" ry="64" width="512" fill="#cf2200"/><path d="M371.29 348.59h-21.96l.1-12.75c0-5.67 4.66-10.3 10.35-10.3h1.4c5.7 0 10.36 4.63 10.36 10.3l-.25 12.75zm-82.34-27.33c-5.57 0-10.13 3.74-10.13 8.33v62.01c0 4.57 4.56 8.3 10.13 8.3 5.59 0 10.15-3.73 10.15-8.3v-62.01c0-4.59-4.56-8.33-10.15-8.33zm133.72-34.69v117.98c0 28.3-24.55 51.45-54.54 51.45H143.87c-30 0-54.54-23.16-54.54-51.45V286.57c0-28.3 24.54-51.45 54.54-51.45h224.26c30 0 54.54 23.16 54.54 51.45zM158.83 417.36V293.08l27.8.01v-18.41l-74.1-.11v18.1l23.13.07v124.62h23.19zm83.33-105.76H219v66.36c0 9.6.58 14.4-.05 16.09-1.88 5.15-10.35 10.6-13.66.55-.56-1.76-.06-7.07-.07-16.19l-.1-66.81h-23.04l.07 65.76c0 10.08-.23 17.6.08 21.02.56 6.03.36 13.06 5.96 17.08 10.42 7.51 30.41-1.12 35.41-11.86l-.04 13.7 18.61.02V311.6zm74.15 75.99l-.05-55.23c0-21.05-15.76-33.66-37.14-16.63l.1-41.06-23.16.03-.11 141.74 19.03-.28 1.74-8.83c24.33 22.32 39.63 7.03 39.6-19.74zm72.54-7.32l-17.38.09c0 .69-.05 1.48-.05 2.35v9.7a9.49 9.49 0 0 1-9.5 9.41h-3.4a9.49 9.49 0 0 1-9.5-9.41V366.9h39.8v-14.98c0-10.94-.29-21.88-1.2-28.14-2.84-19.8-30.62-22.94-44.66-12.8a26.14 26.14 0 0 0-9.73 13.09c-1.98 5.69-2.95 13.47-2.95 23.35v32.93c0 54.74 66.5 47 58.56-.08zm-89.15-178.8c1.2 2.91 3.06 5.27 5.58 7.05 2.48 1.75 5.67 2.63 9.48 2.63 3.34 0 6.3-.9 8.88-2.77 2.57-1.85 4.73-4.62 6.5-8.31l-.44 9.09h25.84V99.29H335.2v85.51a8.47 8.47 0 0 1-16.94 0V99.29h-21.22v74.1c0 9.45.16 15.74.44 18.93.3 3.17 1.03 6.2 2.22 9.16zm-78.3-62.05c0-10.54.89-18.78 2.64-24.72a27.58 27.58 0 0 1 9.5-14.26c4.56-3.6 10.4-5.4 17.5-5.4 5.99 0 11.1 1.17 15.39 3.47 4.3 2.3 7.6 5.3 9.9 9.01a35.56 35.56 0 0 1 4.79 11.44c.87 3.96 1.3 9.93 1.3 18v27.78c0 10.19-.42 17.69-1.2 22.45a35.65 35.65 0 0 1-5.1 13.35 24.19 24.19 0 0 1-9.94 9.14c-4.08 1.97-8.75 2.94-14.02 2.94-5.89 0-10.85-.81-14.94-2.5a20.5 20.5 0 0 1-9.53-7.63c-2.28-3.38-3.88-7.5-4.85-12.32-.97-4.8-1.44-12.03-1.44-21.66v-29.09zm20.24 43.65c0 6.22 4.64 11.3 10.28 11.3s10.25-5.08 10.25-11.3v-58.5c0-6.2-4.61-11.29-10.25-11.29s-10.28 5.08-10.28 11.3v58.49zm-71.5 29.53h24.38l.04-84.27 28.8-72.18H196.7l-15.3 53.61L165.85 56h-26.38l30.64 72.37.04 84.23z" fill="#fff"/></svg>